<svg xmlns="http://www.w3.org/2000/svg" width="900" height="460" viewBox="0 0 900 460">
  <rect width="900" height="460" fill="white" />
  <line x1="70" y1="390" x2="830" y2="390" stroke="#111827" stroke-width="1" />
  <line x1="70" y1="30" x2="70" y2="390" stroke="#111827" stroke-width="1" />
  <text x="450" y="445" text-anchor="middle" font-family="sans-serif" font-size="14">Iteration</text>
  <text x="20" y="210" text-anchor="middle" font-family="sans-serif" font-size="14"
        transform="rotate(-90 20 210)">Loss</text>
  <text x="70" y="414" font-family="sans-serif" font-size="12">100</text>
  <text x="830" y="414" text-anchor="end" font-family="sans-serif" font-size="12">700</text>
  <text x="64" y="394" text-anchor="end" font-family="sans-serif" font-size="12">1.7035</text>
  <text x="64" y="34" text-anchor="end" font-family="sans-serif" font-size="12">2.8993</text>
  <polyline fill="none" stroke="#2563eb" stroke-width="2" points="70.00,46.36 196.67,207.43 323.33,273.75 450.00,305.51 576.67,341.97 703.33,361.48 830.00,373.64 830.00,215.94" />
  <polyline fill="none" stroke="#dc2626" stroke-width="2" points="70.00,71.41 196.67,218.86 323.33,280.85 450.00,318.70 576.67,347.87 703.33,360.25 830.00,365.54 830.00,366.77" />
  <rect x="680" y="42" width="12" height="12" fill="#2563eb" />
  <text x="700" y="53" font-family="sans-serif" font-size="13">train</text>
  <rect x="680" y="66" width="12" height="12" fill="#dc2626" />
  <text x="700" y="77" font-family="sans-serif" font-size="13">validation</text>
</svg>
